# xmcd
#
# Track frame offsets: 
#        150
#        32122
#        72777
#        121100
#        157437
#        198160
#        247152
#
# Disc length: 3699 seconds
#
# Revision: 1
# Processed by: cddbd v1.5.2PL0 Copyright (c) Steve Scherf et al.
# Submitted via: ExactAudioCopy v0.95b4
#
DISCID=610e7107
DTITLE=Cedar Walton - Within Me
DYEAR=2004
DGENRE=Jazz
TTITLE0=Ojos De Rojo
TTITLE1=Off Mirror
TTITLE2=Hagy
TTITLE3=I Can't Get Started
TTITLE4=Holy Land
TTITLE5=Voices Deep Within Me
TTITLE6=Blues For Alberto
EXTD=YEAR: 2004
EXTT0=
EXTT1=
EXTT2=
EXTT3=
EXTT4=
EXTT5=
EXTT6=
PLAYORDER=
